# xmcd
#
# Track frame offsets: 
#        150
#        16075
#        31654
#        50394
#        70621
#
# Disc length: 1170 seconds
#
# Revision: 0
# Processed by: cddbd v1.4PL0 Copyright (c) Steve Scherf et al.
# Submitted via: ExactAudioCopy v0.95a2
#
DISCID=2d049005
DTITLE=denise mcnavish - demo
DYEAR=1900
DGENRE=country
TTITLE0=cross my heart
TTITLE1=did you tell her about me
TTITLE2=don't even go there
TTITLE3=knockin' on heaven's door
TTITLE4=the other side of love
EXTD=
EXTT0=
EXTT1=
EXTT2=
EXTT3=
EXTT4=
PLAYORDER=
